HIERARCHY
ROOT Hips
{
  OFFSET 265.287 66.7526 -254.649
  CHANNELS 6 Xposition Yposition Zposition Zrotation Xrotation Yrotation
  JOINT LeftUpLeg
  {
    OFFSET 8.64259 1.95398 -2.38835
    CHANNELS 3 Zrotation Xrotation Yrotation
    JOINT LeftLeg
    {
      OFFSET 43.7702 0 0
      CHANNELS 3 Zrotation Xrotation Yrotation
      JOINT LeftFoot
      {
        OFFSET 40.6238 0 0
        CHANNELS 3 Zrotation Xrotation Yrotation
        JOINT LeftToeBase
        {
          OFFSET 12.7242 0 0
          CHANNELS 3 Zrotation Xrotation Yrotation
          End Site
          {
            OFFSET 0 0 0
          }
        }
      }
    }
  }
  JOINT RightUpLeg
  {
    OFFSET -8.2249 1.95398 -2.59336
    CHANNELS 3 Zrotation Xrotation Yrotation
    JOINT RightLeg
    {
      OFFSET 43.5653 0 0
      CHANNELS 3 Zrotation Xrotation Yrotation
      JOINT RightFoot
      {
        OFFSET 40.6238 0 0
        CHANNELS 3 Zrotation Xrotation Yrotation
        JOINT RightToeBase
        {
          OFFSET 12.7242 0 0
          CHANNELS 3 Zrotation Xrotation Yrotation
          End Site
          {
            OFFSET 0 0 0
          }
        }
      }
    }
  }
  JOINT Spine
  {
    OFFSET 0.165834 0.87714 6.61349
    CHANNELS 3 Zrotation Xrotation Yrotation
    JOINT Spine1
    {
      OFFSET 7.38963 1.71661e-005 0
      CHANNELS 3 Zrotation Xrotation Yrotation
      JOINT Spine2
      {
        OFFSET 11.9445 1.14441e-005 0
        CHANNELS 3 Zrotation Xrotation Yrotation
        JOINT Spine3
        {
          OFFSET 14.7254 4.19617e-005 0
          CHANNELS 3 Zrotation Xrotation Yrotation
          JOINT Spine4
          {
            OFFSET 10.9679 0 0
            CHANNELS 3 Zrotation Xrotation Yrotation
            JOINT RightShoulder
            {
              OFFSET 2.46616 -1.6653 3.69651
              CHANNELS 3 Zrotation Xrotation Yrotation
              JOINT RightArm
              {
                OFFSET 13.0012 0 0
                CHANNELS 3 Zrotation Xrotation Yrotation
                JOINT RightForeArm
                {
                  OFFSET 28.7848 1.52588e-005 0
                  CHANNELS 3 Zrotation Xrotation Yrotation
                  JOINT RightHand
                  {
                    OFFSET 26.5688 1.52588e-005 0
                    CHANNELS 3 Zrotation Xrotation Yrotation
                    End Site
                    {
                      OFFSET 0 0 0
                    }
                  }
                }
              }
            }
            JOINT LeftShoulder
            {
              OFFSET 2.38034 -1.29275 -3.7523
              CHANNELS 3 Zrotation Xrotation Yrotation
              JOINT LeftArm
              {
                OFFSET 16.3182 6.10351e-005 0
                CHANNELS 3 Zrotation Xrotation Yrotation
                JOINT LeftForeArm
                {
                  OFFSET 27.0901 0 0
                  CHANNELS 3 Zrotation Xrotation Yrotation
                  JOINT LeftHand
                  {
                    OFFSET 24.5451 1.52588e-005 0
                    CHANNELS 3 Zrotation Xrotation Yrotation
                    End Site
                    {
                      OFFSET 0 0 0
                    }
                  }
                }
              }
            }
            JOINT Neck
            {
              OFFSET 5.0226 -0.0266342 0
              CHANNELS 3 Zrotation Xrotation Yrotation
              JOINT Head
              {
                OFFSET 6.69364 2.86102e-005 0
                CHANNELS 3 Zrotation Xrotation Yrotation
                End Site
                {
                  OFFSET 0 0 0
                }
              }
            }
          }
        }
      }
    }
  }
}
MOTION
Frames:	6
Frame Time:	0.0416667
13.4224 96.8388 -27.9199 -108.64 -87.3245 -108.199 -173.531 2.35376 90.5969 -14.0582 5.36853 2.06585 67.5015 2.87847 0.170906 28.8917 -0.372221 2.99991 176.373 1.79096 89.4104 -12.1929 -11.0242 -1.11158 68.0346 -4.60939 -0.0797856 25.8375 0.26663 1.15568 -0.280127 7.01287 -90.2139 12.8472 -0.658675 -0.341504 1.17633 -0.673379 -0.319326 -21.3594 -0.523439 -0.530488 -1.34673 -0.523447 -0.530499 102.561 -49.6392 -81.5466 30.6015 -4.61694 -7.7009 0.766447 -16.2917 -11.3736 -13.1183 -1.01472 3.90672 -80.4554 -49.0333 92.8576 -29.5036 14.7858 -17.8129 2.86501 25.0066 -6.67729 5.45738 -0.0478936 -3.74671 10.286 1.43382 3.43842 -10.5244 0.814127 -3.17707 
13.4089 96.841 -27.8878 -106.983 -87.439 -106.718 -173.624 2.2326 90.3954 -13.5784 5.62997 2.03986 67.5114 3.17145 1.49868 29.1596 -0.244054 1.14434 176.278 1.97857 89.2393 -12.3681 -11.2231 -1.08957 67.9459 -4.59256 -0.306144 26.422 0.22004 0.915515 -0.304878 6.98215 -90.2141 12.9083 -0.707945 -0.344089 1.23766 -0.722344 -0.311113 -21.2983 -0.572257 -0.539525 -1.28569 -0.57226 -0.53953 102.523 -49.6038 -81.6049 30.6438 -5.2864 -7.54462 1.40583 -13.5809 -11.1626 -15.3168 -0.960969 2.12021 -80.2268 -49.2013 93.2165 -29.5774 14.7458 -17.627 2.89872 25.1324 -6.76215 4.91654 -0.0258343 -3.35865 9.59998 1.58648 3.29752 -9.75293 0.961962 -2.57445 
13.4338 96.8472 -27.8661 -105.054 -87.5367 -104.665 -173.646 2.32222 90.4689 -13.535 5.52957 2.11315 67.5495 3.15418 1.28611 29.0495 -0.221219 1.23299 176.335 2.02066 89.3654 -12.2434 -11.0509 -1.05877 67.8497 -4.53244 -0.28696 26.2694 0.230278 0.99802 -0.303793 6.98671 -90.2346 12.9049 -0.715606 -0.38247 1.23057 -0.731743 -0.350616 -21.3017 -0.567577 -0.579863 -1.28905 -0.56758 -0.579871 102.533 -49.4887 -81.5884 30.6212 -5.41554 -7.49673 1.35401 -13.7184 -11.3781 -14.8854 -0.97312 2.45613 -80.2383 -49.4407 93.2092 -29.264 14.8511 -17.6686 2.75834 24.1741 -6.78776 4.98243 0.00590153 -2.86941 9.95121 1.17529 2.8987 -9.69974 0.59085 -1.72798 
13.4462 96.8283 -27.8358 -103.759 -87.5504 -103.252 -173.587 2.53895 90.5735 -13.9084 5.64512 2.11638 67.7737 3.19578 1.31812 28.9053 -0.196235 1.39452 176.412 1.76193 89.4727 -11.7625 -10.7621 -1.08615 68.1719 -4.72535 0.107826 25.6759 0.329003 0.872184 -0.29548 6.98714 -90.2597 12.9068 -0.711109 -0.432968 1.24063 -0.729475 -0.401265 -21.2997 -0.548108 -0.626672 -1.287 -0.548116 -0.626681 102.533 -49.2714 -81.5879 30.8743 -5.06582 -7.4878 1.08119 -14.3254 -11.319 -14.3019 -0.894408 2.12725 -80.1872 -49.6149 93.2948 -29.2544 14.7221 -17.634 2.89448 24.5022 -6.89515 4.63608 -0.0159834 -3.15331 9.9853 1.15041 2.99473 -9.49344 0.532216 -1.56807 
13.4479 96.8246 -27.8222 -103.835 -87.6307 -103.276 -173.528 2.54438 90.6503 -13.8331 6.00487 2.09886 67.568 3.18308 1.56147 29.3056 -0.324587 1.47881 176.428 1.75607 89.5304 -11.7271 -10.6864 -1.06364 68.0575 -4.67378 0.0144446 25.6549 0.284463 1.20484 -0.307682 6.98748 -90.2681 12.9151 -0.739356 -0.446032 1.24434 -0.758263 -0.41306 -21.2913 -0.571128 -0.647615 -1.27866 -0.571129 -0.647623 102.489 -49.2136 -81.6569 31.0038 -5.05803 -7.43351 1.08979 -14.3457 -11.2753 -14.594 -0.904995 2.06066 -80.1454 -49.5625 93.3563 -29.3664 14.5968 -17.5402 2.88606 24.5564 -6.81712 4.45839 -0.0277296 -3.31769 10.0267 1.16321 2.91917 -9.65292 0.557551 -1.46821 
13.459 96.8446 -27.8278 -103.404 -87.5402 -102.865 -173.558 2.49417 90.598 -13.7729 5.70377 2.10692 67.7085 3.21047 1.45581 28.9609 -0.187598 1.16917 176.445 1.87458 89.4877 -11.9344 -10.7437 -1.11434 67.9627 -4.50143 0.304831 26.0254 0.289766 0.806712 -0.301923 6.98796 -90.2687 12.8982 -0.728219 -0.449311 1.22744 -0.747288 -0.416832 -21.3082 -0.559527 -0.647408 -1.29552 -0.559519 -0.647402 102.476 -49.1698 -81.6758 31.117 -4.973 -7.44913 0.963512 -14.3967 -11.3868 -14.2808 -0.870455 1.93901 -80.1099 -49.5671 93.4105 -29.4775 14.4404 -17.4963 3.01399 24.6634 -6.8677 4.11147 -0.0306202 -3.3184 10.2389 1.1831 3.07562 -9.87238 0.55033 -1.67996 
